<svg xmlns="http://www.w3.org/2000/svg" aria-hidden="true" class="svg-inline--fa fa-odnoklassniki-square fa-w-14" data-icon="odnoklassniki-square" data-prefix="fab" viewBox="0 0 448 512"><path fill="currentColor" d="M184 177a40 40 0 1179 0 40 40 0 01-79 0zm264-97v352c0 27-21 48-48 48H48c-26 0-48-21-48-48V80c0-26 22-48 48-48h352c27 0 48 22 48 48zm-305 97a81 81 0 10162 0 81 81 0 00-162 0zm174 91c-4-9-17-17-34-4 0 0-22 18-59 18s-59-18-59-18c-17-13-30-5-34 4-8 16 1 24 21 37 17 11 41 15 57 17l-13 13-48 47c-18 18 11 46 28 29l48-48 48 48c17 17 46-11 28-29l-47-48-13-12c15-2 39-6 56-17 20-13 29-21 21-37z"/></svg>