<svg xmlns="http://www.w3.org/2000/svg" aria-hidden="true" class="svg-inline--fa fa-vk fa-w-18" data-icon="vk" data-prefix="fab" viewBox="0 0 576 512"><path fill="currentColor" d="M545 118c4-13 0-22-18-22h-59c-15 0-22 8-25 17 0 0-30 73-73 120-13 14-20 18-27 18-4 0-10-4-10-17V118c0-15-4-22-16-22h-93c-9 0-15 7-15 14 0 14 21 17 24 57v87c0 19-4 22-11 22-20 0-69-73-98-157-5-16-11-23-26-23H39c-17 0-20 8-20 17 0 15 20 93 93 195 48 70 117 108 179 108 38 0 42-8 42-23 1-67-3-73 16-73 9 0 24 4 59 38 40 40 46 58 69 58h58c17 0 26-8 21-25-11-35-87-107-90-111-9-12-7-17 0-27 0 0 72-101 79-135z"/></svg>